<?xml version="1.0" encoding="UTF-8"?>
<!DOCTYPE svg PUBLIC "-//W3C//DTD SVG 1.1//EN" "http://www.w3.org/Graphics/SVG/1.1/DTD/svg11.dtd">
<!-- Creator: CorelDRAW -->
<svg xmlns="http://www.w3.org/2000/svg" xml:space="preserve" width="2.191mm" height="2.191mm" version="1.1" style="shape-rendering:geometricPrecision; text-rendering:geometricPrecision; image-rendering:optimizeQuality; fill-rule:evenodd; clip-rule:evenodd"
viewBox="0 0 15.89 15.89"
 xmlns:xlink="http://www.w3.org/1999/xlink"
 xmlns:xodm="http://www.corel.com/coreldraw/odm/2003">
 <defs>
  <style type="text/css">
   <![CDATA[
    .fil0 {fill:#F3801F;fill-rule:nonzero}
   ]]>
  </style>
 </defs>
 <g id="Camada_x0020_1">
  <metadata id="CorelCorpID_0Corel-Layer"/>
  <path class="fil0" d="M15.89 2.27c0,-1.25 -1.02,-2.27 -2.27,-2.27l-11.35 0c-1.25,0 -2.27,1.02 -2.27,2.27l0 11.35c0,1.25 1.02,2.27 2.27,2.27l11.35 0c1.25,0 2.27,-1.02 2.27,-2.27l0 -11.35zm-10.63 10.56l-2.98 0.78 0.8 -2.91c-0.49,-0.85 -0.75,-1.82 -0.75,-2.81 0,-3.1 2.53,-5.62 5.63,-5.62 1.5,0 2.91,0.59 3.98,1.65 1.06,1.06 1.7,2.48 1.7,3.98 0,3.1 -2.58,5.62 -5.68,5.62 -0.94,0 -1.87,-0.24 -2.69,-0.68l0 0zm4.49 -2.27c-0.44,0.07 -0.79,0.03 -1.68,-0.35 -1.31,-0.56 -2.19,-1.82 -2.37,-2.08 -0.02,-0.02 -0.03,-0.03 -0.03,-0.04 -0.07,-0.09 -0.57,-0.76 -0.57,-1.45 0,-0.65 0.32,-0.99 0.47,-1.15 0.01,-0.01 0.02,-0.02 0.03,-0.03 0.13,-0.14 0.28,-0.18 0.38,-0.18 0.09,0 0.19,0 0.27,0.01 0.01,0 0.02,0 0.03,0 0.08,0 0.18,0 0.29,0.24 0.04,0.1 0.11,0.26 0.17,0.42 0.12,0.28 0.24,0.58 0.26,0.62 0.04,0.07 0.06,0.15 0.01,0.25 -0.12,0.24 -0.24,0.37 -0.33,0.46 -0.11,0.12 -0.16,0.17 -0.08,0.31 0.54,0.93 1.09,1.26 1.91,1.67 0.14,0.07 0.22,0.06 0.31,-0.04 0.08,-0.09 0.35,-0.41 0.44,-0.55 0.09,-0.14 0.19,-0.12 0.32,-0.07 0.13,0.05 0.82,0.39 0.96,0.46 0.03,0.02 0.05,0.02 0.08,0.04 0.1,0.05 0.17,0.08 0.19,0.13 0.03,0.07 0.03,0.35 -0.08,0.68 -0.12,0.33 -0.68,0.63 -0.95,0.67l0 0zm-6.48 -2.67c0,0.88 0.25,1.74 0.72,2.48l0.11 0.18 -0.47 1.72 1.77 -0.46 0.17 0.1c0.71,0.42 1.54,0.65 2.38,0.65l0 0c2.58,0 4.73,-2.09 4.73,-4.67 0,-1.25 -0.54,-2.42 -1.42,-3.31 -0.89,-0.89 -2.05,-1.37 -3.31,-1.37 -2.58,0 -4.67,2.1 -4.68,4.68l0 0z"/>
 </g>
</svg>
