<?xml version="1.0" encoding="UTF-8"?>
<!DOCTYPE svg PUBLIC "-//W3C//DTD SVG 1.1//EN" "http://www.w3.org/Graphics/SVG/1.1/DTD/svg11.dtd">
<!-- Creator: CorelDRAW -->
<svg xmlns="http://www.w3.org/2000/svg" xml:space="preserve" width="2.191mm" height="2.1911mm" version="1.1" style="shape-rendering:geometricPrecision; text-rendering:geometricPrecision; image-rendering:optimizeQuality; fill-rule:evenodd; clip-rule:evenodd"
viewBox="0 0 15.89 15.89"
 xmlns:xlink="http://www.w3.org/1999/xlink"
 xmlns:xodm="http://www.corel.com/coreldraw/odm/2003">
 <defs>
  <style type="text/css">
   <![CDATA[
    .fil0 {fill:#F3801F;fill-rule:nonzero}
   ]]>
  </style>
 </defs>
 <g id="Camada_x0020_1">
  <metadata id="CorelCorpID_0Corel-Layer"/>
  <path class="fil0" d="M-0 2.27c0,-1.25 1.02,-2.27 2.27,-2.27l11.35 0c1.25,0 2.27,1.02 2.27,2.27l0 11.35c0,1.25 -1.02,2.27 -2.27,2.27l-11.35 0c-1.25,0 -2.27,-1.02 -2.27,-2.27l0 -11.35zm12.4 2.33c0.2,0 0.37,0.17 0.37,0.37l0 0.51 -4 3.29c-0.48,0.4 -1.17,0.4 -1.65,0l-4 -3.29 0 -0.51c0,-0.2 0.17,-0.37 0.37,-0.37l8.91 0zm0.37 2.33l0 3.99c0,0.2 -0.17,0.37 -0.37,0.37l-8.91 0c-0.2,0 -0.37,-0.17 -0.37,-0.37l0 -3.99 3.3 2.71c0.89,0.73 2.17,0.73 3.06,0l3.3 -2.71zm1.12 -1.95c0,-0.82 -0.67,-1.48 -1.49,-1.48l-8.91 0c-0.82,0 -1.48,0.67 -1.48,1.48l0 5.94c0,0.82 0.67,1.49 1.48,1.49l8.91 0c0.82,0 1.49,-0.67 1.49,-1.49l0 -5.94z"/>
 </g>
</svg>
