<?xml version="1.0" encoding="UTF-8"?>
<!DOCTYPE svg PUBLIC "-//W3C//DTD SVG 1.1//EN" "http://www.w3.org/Graphics/SVG/1.1/DTD/svg11.dtd">
<!-- Creator: CorelDRAW -->
<svg xmlns="http://www.w3.org/2000/svg" xml:space="preserve" width="2.191mm" height="2.191mm" version="1.1" style="shape-rendering:geometricPrecision; text-rendering:geometricPrecision; image-rendering:optimizeQuality; fill-rule:evenodd; clip-rule:evenodd"
viewBox="0 0 15.89 15.89"
 xmlns:xlink="http://www.w3.org/1999/xlink"
 xmlns:xodm="http://www.corel.com/coreldraw/odm/2003">
 <defs>
  <style type="text/css">
   <![CDATA[
    .fil0 {fill:#F3801F;fill-rule:nonzero}
   ]]>
  </style>
 </defs>
 <g id="Camada_x0020_1">
  <metadata id="CorelCorpID_0Corel-Layer"/>
  <path class="fil0" d="M-0 2.27c0,-1.25 1.02,-2.27 2.27,-2.27l11.35 0c1.25,0 2.27,1.02 2.27,2.27l0 11.35c0,1.25 -1.02,2.27 -2.27,2.27l-11.35 0c-1.25,0 -2.27,-1.02 -2.27,-2.27l0 -11.35zm12.15 4.34l-0.2 0.35c-0.18,0.31 -0.47,0.53 -0.81,0.63l-1.23 0.35c-0.37,0.1 -0.62,0.44 -0.62,0.82l0 0.85c0,0.23 -0.13,0.45 -0.34,0.55 -0.21,0.1 -0.34,0.32 -0.34,0.55l0 0.83c0,0.33 -0.32,0.57 -0.63,0.48 -0.34,-0.1 -0.61,-0.37 -0.7,-0.72l-0.06 -0.24c-0.09,-0.36 -0.32,-0.67 -0.64,-0.85l-0.17 -0.1c-0.32,-0.18 -0.51,-0.52 -0.51,-0.88l0 -0.18c0,-0.27 0.11,-0.53 0.3,-0.72l0.08 -0.08c0.19,-0.19 0.45,-0.3 0.72,-0.3l0.91 0c0.23,0 0.47,-0.06 0.68,-0.18l0.73 -0.42c0.09,-0.05 0.16,-0.14 0.2,-0.24 0.07,-0.2 -0.02,-0.42 -0.22,-0.52l-0.13 -0.06c-0.14,-0.07 -0.3,-0.08 -0.45,-0.03l-0.49 0.16c-0.17,0.06 -0.37,-0.01 -0.46,-0.16 -0.1,-0.15 -0.09,-0.35 0.02,-0.48l0.29 -0.35c0.21,-0.26 0.21,-0.63 -0.01,-0.88l-0.33 -0.39c-0.19,-0.22 -0.22,-0.53 -0.07,-0.78l0.05 -0.09c0.07,-0 0.15,-0.01 0.22,-0.01 1.97,0 3.64,1.29 4.2,3.08l0 0zm-8.62 1.34c0,-0.78 0.2,-1.51 0.56,-2.15l0.54 0.22c0.33,0.13 0.5,0.5 0.39,0.84l-0.36 1.08c-0.07,0.22 -0.25,0.39 -0.48,0.44l-0.62 0.15c-0.03,-0.19 -0.04,-0.39 -0.04,-0.58l-0 0zm9.84 0c0,-1.94 -1.04,-3.73 -2.72,-4.7 -1.68,-0.97 -3.75,-0.97 -5.43,0 -1.68,0.97 -2.71,2.76 -2.71,4.7 0,1.94 1.04,3.73 2.71,4.7 1.68,0.97 3.75,0.97 5.43,0 1.68,-0.97 2.72,-2.76 2.72,-4.7z"/>
 </g>
</svg>
