<?xml version="1.0" encoding="UTF-8"?>
<!DOCTYPE svg PUBLIC "-//W3C//DTD SVG 1.1//EN" "http://www.w3.org/Graphics/SVG/1.1/DTD/svg11.dtd">
<!-- Creator: CorelDRAW -->
<svg xmlns="http://www.w3.org/2000/svg" xml:space="preserve" width="13.8093mm" height="6.1652mm" version="1.1" style="shape-rendering:geometricPrecision; text-rendering:geometricPrecision; image-rendering:optimizeQuality; fill-rule:evenodd; clip-rule:evenodd"
viewBox="0 0 476.56 212.76"
 xmlns:xlink="http://www.w3.org/1999/xlink"
 xmlns:xodm="http://www.corel.com/coreldraw/odm/2003">
 <defs>
  <style type="text/css">
   <![CDATA[
    .fil0 {fill:#F3801F}
    .fil1 {fill:#F9A119}
    .fil3 {fill:#F9A717}
    .fil2 {fill:#FFCA03}
    .fil4 {fill:#211D1F;fill-rule:nonzero}
   ]]>
  </style>
 </defs>
 <g id="Camada_x0020_1">
  <metadata id="CorelCorpID_0Corel-Layer"/>
  <g id="_1683314708608">
   <polygon class="fil0" points="191.32,76.77 238.26,50.71 238.29,0 191.35,26.06 "/>
   <polygon class="fil1" points="285.27,76.77 238.32,50.71 238.29,0 285.24,26.06 "/>
   <polygon class="fil2" points="238.27,12.85 273.49,32.39 238.29,51.97 203.06,32.39 "/>
   <polygon class="fil3" points="203.08,32.42 238.29,51.97 238.31,90.01 203.1,70.46 "/>
   <polygon class="fil0" points="273.56,32.42 238.29,51.96 238.31,89.89 273.53,70.35 "/>
   <polygon class="fil0" points="211.79,79.45 238.32,94.16 238.31,112.84 211.81,98.13 "/>
   <polygon class="fil2" points="264.84,79.45 238.31,94.16 238.31,112.84 264.82,98.13 "/>
   <path class="fil4" d="M476.56 165.66l0 -8.64 -23.99 0c-0.43,0 -0.82,-0.2 -1.15,-0.59 -0.33,-0.4 -0.49,-0.84 -0.49,-1.33l0 -19.12 -11.34 0 0 24.23c0,1.45 0.5,2.72 1.52,3.81 1.01,1.09 2.17,1.64 3.48,1.64l31.97 0zm-54.03 -29.68l0 0 0 29.72 10.93 0 0 -29.72 -10.93 0zm-6.14 22.31l0 0 0 -1.39 -45.19 0 0 8.76 39.95 0c1.28,0 2.53,-0.74 3.73,-2.21 1.01,-1.26 1.52,-2.97 1.52,-5.16zm-0.17 -3.81l0 0c-0.03,-0.43 -0.07,-0.9 -0.14,-1.41 -0.07,-0.5 -0.17,-1 -0.29,-1.49 -0.12,-0.49 -0.27,-0.95 -0.43,-1.37 -0.16,-0.42 -0.36,-0.77 -0.57,-1.05 -1.15,-1.34 -2.35,-2.01 -3.6,-2.01l-26.73 0c-0.3,0 -0.54,-0.06 -0.72,-0.18 -0.18,-0.12 -0.33,-0.35 -0.47,-0.68l0.08 -0.49c0.06,-0.27 0.14,-0.51 0.27,-0.71 0.12,-0.2 0.35,-0.31 0.68,-0.31l32.09 0 0 -8.8 -39.95 0c-1.31,0 -2.55,0.74 -3.73,2.21 -1.01,1.26 -1.52,2.97 -1.52,5.16l0 5.04 0.12 0c0.11,1.66 0.6,3.03 1.47,4.09 1.15,1.34 2.36,2.01 3.64,2.01l39.79 0zm-49.12 11.18l0 0 -13.02 0 -2.91 -4.22 -25.34 0 5.53 -8.72 13.02 0c0.13,0 -2.46,-3.93 -7.78,-11.79l-16.17 24.73 -12.32 0 19.57 -28.66c0.93,-0.68 2.1,-1.02 3.52,-1.02l11.46 0c0.71,0 1.36,0.12 1.96,0.35 0.6,0.23 1.17,0.56 1.72,0.96 0.68,0.52 1.3,1.24 1.84,2.17l18.91 26.2zm-64.1 -13.96l0 0c0,0.49 -0.03,0.92 -0.08,1.29 -0.06,0.37 -0.12,0.69 -0.2,0.96 -0.14,0.47 -0.4,0.97 -0.78,1.52 -0.43,0.63 -1.12,1.12 -2.05,1.47 -0.93,0.36 -2.08,0.6 -3.48,0.74l-2.42 0 8.8 7.98 -13.76 0c-0.11,0 -0.43,-0.19 -0.96,-0.56 -0.53,-0.37 -1.21,-0.85 -2.03,-1.43 -0.82,-0.59 -1.73,-1.25 -2.74,-2.01 -1.01,-0.75 -2.03,-1.52 -3.05,-2.29 -1.02,-0.78 -2.03,-1.54 -3.01,-2.29 -0.98,-0.75 -1.86,-1.41 -2.62,-1.99 -0.76,-0.57 -1.38,-1.02 -1.84,-1.35 -0.47,-0.33 -0.7,-0.48 -0.7,-0.45 -0.96,-0.74 -1.43,-1.27 -1.43,-1.59 0,-0.22 0.18,-0.51 0.53,-0.86 0.19,-0.17 0.38,-0.28 0.55,-0.33 0.18,-0.06 0.35,-0.08 0.51,-0.08l16.09 0c0.96,0 1.74,-0.3 2.33,-0.9 0.49,-0.49 0.74,-1.13 0.74,-1.93 0,-0.98 -0.31,-1.75 -0.94,-2.29 -0.63,-0.46 -1.28,-0.7 -1.96,-0.7l-17.6 0c-0.46,0 -0.98,0.11 -1.55,0.33 -0.77,0.35 -1.15,1.01 -1.15,1.96l0 18.75 -11.01 0 0 -24.52c0,-0.76 0.22,-1.46 0.66,-2.11 0.44,-0.64 0.98,-1.19 1.64,-1.64 0.66,-0.45 1.38,-0.8 2.17,-1.05 0.79,-0.25 1.54,-0.37 2.25,-0.37l33.07 0c0.9,0 1.72,0.18 2.46,0.55 0.74,0.37 1.37,0.86 1.9,1.47 0.53,0.61 0.94,1.32 1.23,2.13 0.29,0.8 0.43,1.64 0.43,2.52l0 9.05zm-86.74 -7.08l0 0 20.3 0c0.14,0 0.32,0.01 0.56,0.02 0.23,0.01 0.46,0.05 0.69,0.1 0.23,0.06 0.43,0.14 0.59,0.25 0.17,0.11 0.25,0.26 0.25,0.45 0,0.11 0.01,0.22 0.04,0.33 0.03,0.11 0.04,0.23 0.04,0.37l0 0.2c-0.6,0.6 -1.38,0.9 -2.33,0.9l-17.68 0 0 7.29 19.16 0c0.19,0.11 0.36,0.21 0.51,0.31 0.15,0.1 0.28,0.2 0.39,0.31 0.03,0.03 0.04,0.08 0.04,0.16 0,0.14 -0.03,0.3 -0.08,0.49 -0.06,0.19 -0.08,0.34 -0.08,0.45 0,0.19 -0.08,0.34 -0.25,0.45 -0.16,0.11 -0.36,0.19 -0.59,0.25 -0.23,0.06 -0.47,0.09 -0.69,0.1 -0.23,0.01 -0.42,0.02 -0.56,0.02l-20.3 0 0 -12.45zm34.79 8.72l0 0c0,-0.22 -0.06,-0.44 -0.18,-0.68 -0.12,-0.23 -0.27,-0.46 -0.43,-0.67 -0.16,-0.22 -0.31,-0.42 -0.45,-0.59 -0.14,-0.18 -0.22,-0.33 -0.25,-0.47 0.03,-0.11 0.11,-0.28 0.25,-0.53 0.14,-0.25 0.29,-0.5 0.45,-0.78 0.17,-0.27 0.31,-0.55 0.43,-0.84 0.12,-0.29 0.18,-0.54 0.18,-0.76l0 -5.36c0,-0.87 -0.13,-1.68 -0.41,-2.43 -0.27,-0.75 -0.66,-1.44 -1.15,-2.07 -1.12,-1.45 -2.61,-2.17 -4.46,-2.17l-39.79 0 0 29.68 0.04 0 0 0.04 39.75 0c1.85,0 3.34,-0.72 4.46,-2.17 0.49,-0.63 0.87,-1.32 1.15,-2.07 0.27,-0.75 0.41,-1.56 0.41,-2.44l0 -5.69zm-74.42 -1.64l0 0c0,0.49 -0.03,0.92 -0.08,1.29 -0.06,0.37 -0.12,0.69 -0.2,0.96 -0.14,0.47 -0.4,0.97 -0.78,1.52 -0.44,0.63 -1.12,1.12 -2.05,1.47 -0.93,0.36 -2.09,0.6 -3.48,0.74l-2.42 0 8.8 7.98 -13.76 0c-0.11,0 -0.43,-0.19 -0.96,-0.56 -0.53,-0.37 -1.21,-0.85 -2.03,-1.43 -0.82,-0.59 -1.73,-1.25 -2.74,-2.01 -1.01,-0.75 -2.03,-1.52 -3.05,-2.29 -1.02,-0.78 -2.03,-1.54 -3.01,-2.29 -0.98,-0.75 -1.86,-1.41 -2.62,-1.99 -0.77,-0.57 -1.38,-1.02 -1.84,-1.35 -0.47,-0.33 -0.7,-0.48 -0.7,-0.45 -0.95,-0.74 -1.43,-1.27 -1.43,-1.59 0,-0.22 0.18,-0.51 0.53,-0.86 0.19,-0.17 0.38,-0.28 0.55,-0.33 0.18,-0.06 0.35,-0.08 0.51,-0.08l16.09 0c0.96,0 1.74,-0.3 2.33,-0.9 0.49,-0.49 0.74,-1.13 0.74,-1.93 0,-0.98 -0.31,-1.75 -0.94,-2.29 -0.63,-0.46 -1.28,-0.7 -1.96,-0.7l-17.6 0c-0.46,0 -0.98,0.11 -1.55,0.33 -0.77,0.35 -1.15,1.01 -1.15,1.96l0 18.75 -11.01 0 0 -24.52c0,-0.76 0.22,-1.46 0.66,-2.11 0.43,-0.64 0.98,-1.19 1.64,-1.64 0.66,-0.45 1.38,-0.8 2.17,-1.05 0.79,-0.25 1.54,-0.37 2.25,-0.37l33.07 0c0.9,0 1.72,0.18 2.46,0.55 0.74,0.37 1.37,0.86 1.9,1.47 0.53,0.61 0.94,1.32 1.23,2.13 0.29,0.8 0.43,1.64 0.43,2.52l0 9.05zm-49.9 13.96l0 0 -13.02 0 -2.91 -4.22 -25.34 0 5.53 -8.72 13.02 0c0.14,0 -2.46,-3.93 -7.78,-11.79l-16.17 24.73 -12.32 0 19.57 -28.66c0.93,-0.68 2.1,-1.02 3.52,-1.02l11.46 0c0.71,0 1.36,0.12 1.96,0.35 0.6,0.23 1.17,0.56 1.72,0.96 0.68,0.52 1.29,1.24 1.84,2.17l18.92 26.2zm-75.28 -17.15l0 0c0,-1.5 -0.23,-2.53 -0.7,-3.07 -0.22,-0.25 -0.54,-0.45 -0.96,-0.59 -0.42,-0.15 -0.96,-0.23 -1.62,-0.23l-8.56 0c-1.45,0 -2.35,0.42 -2.7,1.27l0 19.81 -11.18 0 0 -19.85c-0.02,-0.11 -0.11,-0.24 -0.27,-0.39 -0.15,-0.15 -0.32,-0.29 -0.51,-0.41 -0.19,-0.12 -0.39,-0.22 -0.59,-0.31 -0.2,-0.08 -0.36,-0.12 -0.47,-0.12l-12.98 0 0 21.08 -10.93 0 0 -29.72 56.33 0c1.8,0 3.33,0.71 4.59,2.13 1.15,1.31 1.72,2.84 1.72,4.58l0 23 -11.17 0 0 -17.19z"/>
   <path class="fil4" d="M362.07 202.38l2.13 0 0 0.32c0,0.87 0.27,1.47 0.81,1.79 0.53,0.33 1.62,0.49 3.23,0.49 1.83,0 2.94,-0.17 3.36,-0.5 0.42,-0.33 0.63,-0.97 0.63,-1.92 0,-0.92 -0.18,-1.54 -0.52,-1.85 -0.35,-0.31 -1.21,-0.49 -2.59,-0.57 -0.51,-0.03 -1.2,-0.06 -2.07,-0.08 -1.9,-0.05 -3.03,-0.19 -3.39,-0.39 -0.53,-0.3 -0.92,-0.7 -1.15,-1.21 -0.23,-0.51 -0.35,-1.25 -0.35,-2.21 0,-1.57 0.4,-2.63 1.2,-3.19 0.8,-0.56 2.55,-0.84 5.27,-0.84 2.11,0 3.53,0.27 4.28,0.79 0.75,0.53 1.13,1.46 1.13,2.79l-2.1 0 0 -0.13c0,-0.63 -0.27,-1.06 -0.81,-1.3 -0.54,-0.24 -1.62,-0.36 -3.23,-0.36 -1.56,0 -2.56,0.14 -2.99,0.43 -0.43,0.29 -0.65,0.89 -0.65,1.8 0,0.56 0.04,0.95 0.12,1.17 0.09,0.22 0.23,0.39 0.43,0.51 0.42,0.23 1.35,0.36 2.8,0.39 0.37,0.01 0.65,0.02 0.85,0.03 1.18,0.04 2.11,0.1 2.78,0.18 0.67,0.07 1.15,0.18 1.44,0.31 0.63,0.29 1.07,0.7 1.34,1.24 0.26,0.53 0.39,1.32 0.39,2.34 0,1.04 -0.13,1.83 -0.39,2.36 -0.26,0.54 -0.72,1.01 -1.4,1.43 -0.3,0.2 -0.8,0.34 -1.49,0.42 -0.69,0.09 -1.65,0.13 -2.88,0.13 -2.51,0 -4.17,-0.29 -4.98,-0.87 -0.81,-0.58 -1.22,-1.63 -1.22,-3.15l0 -0.38zm-9.91 4.4l0 0c-2.12,0 -3.6,-0.41 -4.44,-1.24 -0.84,-0.83 -1.26,-2.27 -1.26,-4.34l0 -3.36c0,-2.08 0.42,-3.54 1.26,-4.36 0.84,-0.83 2.31,-1.24 4.42,-1.24l0.98 0c2.12,0 3.6,0.41 4.44,1.24 0.84,0.82 1.26,2.27 1.26,4.36l0 2.14 -10.18 0.01c-0.01,0.14 -0.01,0.3 -0.02,0.48 -0,0.17 -0.01,0.41 -0.01,0.73 0,1.46 0.23,2.44 0.7,2.93 0.47,0.5 1.41,0.75 2.83,0.75l0.98 0c1.26,0 2.14,-0.18 2.64,-0.55 0.49,-0.36 0.78,-1 0.86,-1.9l2.18 0c-0.11,1.54 -0.6,2.64 -1.48,3.32 -0.88,0.68 -2.27,1.02 -4.17,1.02l-0.98 0zm-3.52 -8.64l0 0 8.01 0 0 -0.55c0,-1.33 -0.24,-2.23 -0.71,-2.71 -0.48,-0.47 -1.42,-0.71 -2.83,-0.71l-0.98 0c-1.4,0 -2.33,0.24 -2.8,0.71 -0.46,0.48 -0.7,1.38 -0.7,2.71l0 0.55zm-7.66 -10.91l0 0c-0.23,0.8 -0.57,1.41 -1,1.81 -0.43,0.4 -0.96,0.6 -1.57,0.6 -0.13,0 -0.27,-0.01 -0.41,-0.03 -0.15,-0.02 -0.31,-0.06 -0.48,-0.1l-1.28 -0.38c-0.16,-0.05 -0.29,-0.09 -0.4,-0.11 -0.1,-0.02 -0.21,-0.03 -0.32,-0.03 -0.25,0 -0.49,0.09 -0.7,0.26 -0.21,0.17 -0.39,0.41 -0.53,0.71l-1.07 0c0.2,-0.78 0.52,-1.38 0.97,-1.8 0.45,-0.42 1,-0.62 1.65,-0.62 0.14,0 0.28,0.01 0.39,0.03 0.12,0.02 0.22,0.04 0.32,0.08l1.31 0.42c0.1,0.03 0.22,0.07 0.36,0.09 0.13,0.03 0.26,0.04 0.38,0.04 0.3,0 0.56,-0.08 0.77,-0.23 0.21,-0.16 0.39,-0.4 0.52,-0.73l1.1 0zm-4.38 19.55l0 0c-2.12,0 -3.6,-0.41 -4.44,-1.24 -0.84,-0.82 -1.26,-2.27 -1.26,-4.34l0 -3.36c0,-2.08 0.42,-3.54 1.26,-4.36 0.84,-0.83 2.31,-1.24 4.42,-1.24l0.98 0c2.12,0 3.6,0.41 4.44,1.24 0.84,0.82 1.26,2.27 1.26,4.36l0 3.36c0,2.08 -0.42,3.53 -1.26,4.35 -0.84,0.82 -2.31,1.23 -4.42,1.23l-0.98 0zm4.49 -6.05l0 0 0 -2.42c0,-1.78 -0.22,-2.92 -0.68,-3.41 -0.45,-0.49 -1.4,-0.74 -2.86,-0.74l-0.98 0c-1.44,0 -2.38,0.24 -2.83,0.72 -0.45,0.49 -0.67,1.63 -0.67,3.42l0 2.42c0,1.8 0.22,2.94 0.67,3.43 0.45,0.48 1.39,0.72 2.83,0.72l0.98 0c1.44,0 2.39,-0.25 2.85,-0.74 0.45,-0.5 0.68,-1.64 0.68,-3.42zm-19.43 5.86l0 0 0 1.55 0.86 0c0.85,0 1.4,0.12 1.65,0.36 0.25,0.24 0.38,0.86 0.38,1.85 0,1.08 -0.12,1.76 -0.36,2.02 -0.23,0.26 -0.78,0.4 -1.64,0.4l-3.55 0 0 -1.19 2.86 0c0.48,0 0.77,-0.06 0.88,-0.19 0.1,-0.12 0.16,-0.5 0.16,-1.11 0,-0.55 -0.04,-0.89 -0.14,-1.02 -0.09,-0.13 -0.4,-0.19 -0.92,-0.19l-1.05 0 0 -2.47 0.87 0zm-0.63 0.19l0 0c-2.12,0 -3.6,-0.41 -4.44,-1.24 -0.84,-0.82 -1.26,-2.27 -1.26,-4.34l0 -3.36c0,-2.08 0.42,-3.53 1.26,-4.36 0.84,-0.82 2.31,-1.24 4.42,-1.24l0.98 0c2,0 3.44,0.38 4.32,1.15 0.88,0.77 1.34,2.03 1.38,3.77l-2.17 0.01c-0.05,-1.15 -0.3,-1.94 -0.78,-2.36 -0.48,-0.43 -1.39,-0.65 -2.76,-0.65l-0.98 0c-1.44,0 -2.38,0.24 -2.83,0.72 -0.45,0.49 -0.67,1.63 -0.67,3.42l0 2.42c0,1.8 0.22,2.95 0.67,3.43 0.45,0.48 1.39,0.72 2.83,0.72l0.98 0c1.38,0 2.32,-0.23 2.8,-0.71 0.49,-0.47 0.74,-1.33 0.74,-2.57l0 -0.25 2.17 0 0 0.27c0,1.85 -0.44,3.17 -1.31,3.96 -0.87,0.79 -2.33,1.19 -4.36,1.19l-0.98 0zm-11.33 -1.68l0 0c-0.32,0.59 -0.84,1.02 -1.54,1.28 -0.7,0.26 -1.68,0.4 -2.92,0.4 -2.22,0 -3.7,-0.32 -4.46,-0.95 -0.75,-0.63 -1.13,-1.81 -1.13,-3.53 0,-0.99 0.09,-1.77 0.26,-2.34 0.17,-0.57 0.46,-1.02 0.87,-1.36 0.34,-0.29 0.84,-0.49 1.5,-0.61 0.66,-0.12 1.61,-0.18 2.84,-0.18 1.29,0 2.26,0.11 2.94,0.32 0.68,0.21 1.19,0.56 1.53,1.06l0 -2.45c0,-1.16 -0.23,-1.9 -0.68,-2.25 -0.45,-0.34 -1.57,-0.51 -3.38,-0.51 -1.31,0 -2.18,0.14 -2.61,0.41 -0.43,0.27 -0.66,0.79 -0.68,1.54l-2.08 0 0 -0.32c0,-1.21 0.39,-2.07 1.18,-2.59 0.78,-0.52 2.14,-0.78 4.05,-0.78 1.5,0 2.64,0.07 3.42,0.19 0.78,0.12 1.36,0.32 1.74,0.6 0.41,0.32 0.7,0.72 0.87,1.2 0.17,0.48 0.26,1.29 0.26,2.45l0 9.91 -1.91 0 -0.08 -1.49zm-0.1 -2.11l0 0 0 -1.49c0,-0.68 -0.35,-1.17 -1.03,-1.48 -0.69,-0.32 -1.78,-0.47 -3.28,-0.47 -1.37,0 -2.29,0.17 -2.75,0.52 -0.46,0.35 -0.69,1.01 -0.69,1.98 0,1.11 0.25,1.85 0.74,2.22 0.49,0.37 1.46,0.56 2.94,0.56 1.32,0 2.33,-0.16 3.03,-0.48 0.7,-0.32 1.05,-0.77 1.05,-1.36zm-19.69 3.79l0 0c-2.12,0 -3.6,-0.41 -4.44,-1.24 -0.84,-0.82 -1.26,-2.27 -1.26,-4.34l0 -3.36c0,-2.08 0.42,-3.53 1.26,-4.36 0.84,-0.82 2.31,-1.24 4.42,-1.24l0.98 0c2,0 3.44,0.38 4.32,1.15 0.88,0.77 1.34,2.03 1.38,3.77l-2.17 0.01c-0.05,-1.15 -0.3,-1.94 -0.78,-2.36 -0.47,-0.43 -1.39,-0.65 -2.75,-0.65l-0.98 0c-1.44,0 -2.38,0.24 -2.83,0.72 -0.45,0.49 -0.67,1.63 -0.67,3.42l0 2.42c0,1.8 0.22,2.95 0.67,3.43 0.45,0.48 1.39,0.72 2.83,0.72l0.98 0c1.38,0 2.32,-0.23 2.8,-0.71 0.49,-0.47 0.74,-1.33 0.74,-2.57l0 -0.25 2.17 0 0 0.27c0,1.85 -0.44,3.17 -1.31,3.96 -0.87,0.79 -2.33,1.19 -4.36,1.19l-0.98 0zm-15.56 0l0 0c-2.12,0 -3.6,-0.41 -4.44,-1.24 -0.84,-0.82 -1.26,-2.27 -1.26,-4.34l0 -3.36c0,-2.08 0.42,-3.54 1.26,-4.36 0.84,-0.83 2.31,-1.24 4.42,-1.24l0.98 0c2.12,0 3.6,0.41 4.44,1.24 0.84,0.82 1.26,2.27 1.26,4.36l0 3.36c0,2.08 -0.42,3.53 -1.26,4.35 -0.84,0.82 -2.31,1.23 -4.42,1.23l-0.98 0zm4.49 -6.05l0 0 0 -2.42c0,-1.78 -0.23,-2.92 -0.68,-3.41 -0.45,-0.49 -1.41,-0.74 -2.86,-0.74l-0.98 0c-1.44,0 -2.38,0.24 -2.83,0.72 -0.45,0.49 -0.67,1.63 -0.67,3.42l0 2.42c0,1.8 0.22,2.94 0.67,3.43 0.45,0.48 1.39,0.72 2.83,0.72l0.98 0c1.44,0 2.39,-0.25 2.85,-0.74 0.46,-0.5 0.69,-1.64 0.69,-3.42zm-25.34 5.86l0 0 0 -20.03 2.18 0 0 17.93 11.35 0 0 2.1 -13.53 0zm-19.99 0.19l0 0c-2.12,0 -3.6,-0.41 -4.44,-1.24 -0.84,-0.83 -1.26,-2.27 -1.26,-4.34l0 -3.36c0,-2.08 0.42,-3.54 1.26,-4.36 0.84,-0.83 2.31,-1.24 4.42,-1.24l0.98 0c2.12,0 3.6,0.41 4.44,1.24 0.84,0.82 1.26,2.27 1.26,4.36l0 2.14 -10.18 0.01c-0.01,0.14 -0.01,0.3 -0.02,0.48 -0,0.17 -0.01,0.41 -0.01,0.73 0,1.46 0.23,2.44 0.7,2.93 0.47,0.5 1.41,0.75 2.82,0.75l0.98 0c1.26,0 2.14,-0.18 2.64,-0.55 0.49,-0.36 0.78,-1 0.86,-1.9l2.18 0c-0.1,1.54 -0.6,2.64 -1.48,3.32 -0.88,0.68 -2.27,1.02 -4.17,1.02l-0.98 0zm-3.52 -8.64l0 0 8.01 0 0 -0.55c0,-1.33 -0.24,-2.23 -0.71,-2.71 -0.48,-0.47 -1.42,-0.71 -2.82,-0.71l-0.98 0c-1.39,0 -2.33,0.24 -2.8,0.71 -0.47,0.48 -0.7,1.38 -0.7,2.71l0 0.55zm-27.49 4.24l0 0 2.13 0 0 0.32c0,0.87 0.27,1.47 0.81,1.79 0.54,0.33 1.62,0.49 3.24,0.49 1.82,0 2.94,-0.17 3.36,-0.5 0.42,-0.33 0.63,-0.97 0.63,-1.92 0,-0.92 -0.17,-1.54 -0.52,-1.85 -0.35,-0.31 -1.21,-0.49 -2.59,-0.57 -0.51,-0.03 -1.2,-0.06 -2.07,-0.08 -1.9,-0.05 -3.03,-0.19 -3.39,-0.39 -0.54,-0.3 -0.92,-0.7 -1.15,-1.21 -0.23,-0.51 -0.34,-1.25 -0.34,-2.21 0,-1.57 0.4,-2.63 1.2,-3.19 0.8,-0.56 2.55,-0.84 5.27,-0.84 2.11,0 3.53,0.27 4.28,0.79 0.75,0.53 1.13,1.46 1.13,2.79l-2.1 0 0 -0.13c0,-0.63 -0.27,-1.06 -0.81,-1.3 -0.54,-0.24 -1.62,-0.36 -3.24,-0.36 -1.56,0 -2.56,0.14 -2.99,0.43 -0.43,0.29 -0.65,0.89 -0.65,1.8 0,0.56 0.04,0.95 0.12,1.17 0.08,0.22 0.22,0.39 0.43,0.51 0.42,0.23 1.36,0.36 2.8,0.39 0.37,0.01 0.65,0.02 0.85,0.03 1.18,0.04 2.11,0.1 2.78,0.18 0.67,0.07 1.15,0.18 1.44,0.31 0.63,0.29 1.08,0.7 1.34,1.24 0.26,0.53 0.39,1.32 0.39,2.34 0,1.04 -0.13,1.83 -0.39,2.36 -0.26,0.54 -0.72,1.01 -1.4,1.43 -0.3,0.2 -0.8,0.34 -1.49,0.42 -0.69,0.09 -1.65,0.13 -2.88,0.13 -2.51,0 -4.17,-0.29 -4.98,-0.87 -0.81,-0.58 -1.21,-1.63 -1.21,-3.15l0 -0.38zm-9.92 4.4l0 0c-2.12,0 -3.6,-0.41 -4.44,-1.24 -0.84,-0.82 -1.26,-2.27 -1.26,-4.34l0 -3.36c0,-2.08 0.42,-3.54 1.26,-4.36 0.84,-0.83 2.31,-1.24 4.42,-1.24l0.98 0c2.12,0 3.6,0.41 4.44,1.24 0.84,0.82 1.26,2.27 1.26,4.36l0 3.36c0,2.08 -0.42,3.53 -1.26,4.35 -0.84,0.82 -2.31,1.23 -4.42,1.23l-0.98 0zm4.49 -6.05l0 0 0 -2.42c0,-1.78 -0.22,-2.92 -0.68,-3.41 -0.45,-0.49 -1.41,-0.74 -2.86,-0.74l-0.98 0c-1.44,0 -2.38,0.24 -2.83,0.72 -0.45,0.49 -0.67,1.63 -0.67,3.42l0 2.42c0,1.8 0.22,2.94 0.67,3.43 0.45,0.48 1.39,0.72 2.82,0.72l0.98 0c1.44,0 2.39,-0.25 2.85,-0.74 0.46,-0.5 0.68,-1.64 0.68,-3.42zm-19.43 5.86l0 0 0 1.55 0.87 0c0.85,0 1.4,0.12 1.65,0.36 0.25,0.24 0.38,0.86 0.38,1.85 0,1.08 -0.12,1.76 -0.36,2.02 -0.23,0.26 -0.79,0.4 -1.64,0.4l-3.55 0 0 -1.19 2.86 0c0.48,0 0.77,-0.06 0.88,-0.19 0.11,-0.12 0.16,-0.5 0.16,-1.11 0,-0.55 -0.05,-0.89 -0.14,-1.02 -0.09,-0.13 -0.4,-0.19 -0.92,-0.19l-1.05 0 0 -2.47 0.87 0zm-0.63 0.19l0 0c-2.12,0 -3.6,-0.41 -4.44,-1.24 -0.84,-0.82 -1.26,-2.27 -1.26,-4.34l0 -3.36c0,-2.08 0.42,-3.53 1.26,-4.36 0.84,-0.82 2.31,-1.24 4.42,-1.24l0.98 0c2,0 3.44,0.38 4.32,1.15 0.88,0.77 1.34,2.03 1.38,3.77l-2.17 0.01c-0.04,-1.15 -0.3,-1.94 -0.78,-2.36 -0.47,-0.43 -1.39,-0.65 -2.75,-0.65l-0.98 0c-1.44,0 -2.38,0.24 -2.83,0.72 -0.45,0.49 -0.67,1.63 -0.67,3.42l0 2.42c0,1.8 0.22,2.95 0.67,3.43 0.45,0.48 1.39,0.72 2.82,0.72l0.98 0c1.38,0 2.31,-0.23 2.8,-0.71 0.49,-0.47 0.73,-1.33 0.73,-2.57l0 -0.25 2.17 0 0 0.27c0,1.85 -0.43,3.17 -1.31,3.96 -0.87,0.79 -2.33,1.19 -4.36,1.19l-0.98 0zm-11.56 -0.19l0 0 0 -14.16 2.08 0 0 14.16 -2.08 0zm0 -17.66l0 0 0 -2.37 2.08 0 0 2.37 -2.08 0zm-15 3.5l0 0 2.1 0 4.21 12.19 4.22 -12.19 2.03 0 -4.87 14.16 -2.73 0 -4.96 -14.16zm-10.92 14.16l0 0 0 -14.16 2.03 0 0 1.94c0.3,-0.73 0.76,-1.27 1.39,-1.62 0.63,-0.34 1.46,-0.51 2.5,-0.51 1.54,0 2.63,0.37 3.24,1.12 0.62,0.74 0.94,2.06 0.94,3.95l0 0.11 -2.11 0 0 -0.42c0,-1.13 -0.18,-1.89 -0.54,-2.28 -0.36,-0.39 -1.04,-0.58 -2.03,-0.58 -1.17,0 -2.01,0.33 -2.53,0.99 -0.52,0.66 -0.78,1.74 -0.78,3.24l0 8.23 -2.11 0zm-10.41 0.19l0 0c-2.12,0 -3.6,-0.41 -4.44,-1.24 -0.84,-0.83 -1.26,-2.27 -1.26,-4.34l0 -3.36c0,-2.08 0.42,-3.54 1.26,-4.36 0.84,-0.83 2.31,-1.24 4.42,-1.24l0.98 0c2.12,0 3.6,0.41 4.44,1.24 0.84,0.82 1.26,2.27 1.26,4.36l0 2.14 -10.18 0.01c-0.01,0.14 -0.01,0.3 -0.02,0.48 -0,0.17 -0.01,0.41 -0.01,0.73 0,1.46 0.23,2.44 0.7,2.93 0.47,0.5 1.41,0.75 2.83,0.75l0.98 0c1.26,0 2.14,-0.18 2.64,-0.55 0.49,-0.36 0.78,-1 0.86,-1.9l2.18 0c-0.11,1.54 -0.6,2.64 -1.48,3.32 -0.88,0.68 -2.27,1.02 -4.17,1.02l-0.98 0zm-3.52 -8.64l0 0 8.01 0 0 -0.55c0,-1.33 -0.24,-2.23 -0.71,-2.71 -0.48,-0.47 -1.42,-0.71 -2.83,-0.71l-0.98 0c-1.4,0 -2.33,0.24 -2.8,0.71 -0.46,0.48 -0.7,1.38 -0.7,2.71l0 0.55zm-21.55 1.93l0 0 2.23 0 0 0.38c0,1.19 0.09,2.07 0.27,2.64 0.18,0.56 0.47,0.96 0.89,1.2 0.32,0.18 0.82,0.3 1.49,0.38 0.68,0.08 2.06,0.11 4.16,0.11 1.14,0 2.03,-0.07 2.65,-0.22 0.62,-0.15 1.09,-0.39 1.4,-0.72 0.17,-0.18 0.29,-0.49 0.37,-0.91 0.08,-0.43 0.12,-1.01 0.12,-1.75 0,-1.49 -0.15,-2.42 -0.45,-2.81 -0.3,-0.38 -0.9,-0.61 -1.79,-0.68l-6.17 -0.49c-1.85,-0.14 -3.12,-0.6 -3.83,-1.38 -0.71,-0.78 -1.06,-2.1 -1.06,-3.94 0,-1.17 0.11,-2.1 0.35,-2.81 0.23,-0.71 0.61,-1.3 1.13,-1.76 0.4,-0.36 0.97,-0.61 1.69,-0.76 0.73,-0.14 2.01,-0.22 3.85,-0.22l0.71 0c2.05,0 3.5,0.1 4.33,0.29 0.84,0.2 1.54,0.54 2.11,1.02 0.39,0.32 0.67,0.79 0.85,1.38 0.19,0.6 0.28,1.34 0.28,2.23 0,0.26 -0,0.46 -0.01,0.6 -0.01,0.14 -0.01,0.26 -0.02,0.37l-2.23 0 0 -0.49c0,-0.74 -0.04,-1.3 -0.13,-1.69 -0.08,-0.39 -0.22,-0.68 -0.41,-0.87 -0.28,-0.27 -0.78,-0.47 -1.49,-0.58 -0.71,-0.11 -2.07,-0.17 -4.05,-0.17 -2.06,0 -3.36,0.23 -3.89,0.7 -0.53,0.47 -0.79,1.4 -0.79,2.8 0,1.15 0.18,1.94 0.52,2.37 0.35,0.43 1.01,0.69 2,0.77l6.29 0.52c1.65,0.14 2.81,0.6 3.47,1.37 0.67,0.77 1,2.05 1,3.84 0,1.31 -0.09,2.29 -0.26,2.95 -0.17,0.66 -0.45,1.21 -0.85,1.65 -0.49,0.55 -1.14,0.93 -1.96,1.15 -0.81,0.22 -2.31,0.33 -4.49,0.33l-0.99 0c-1.85,0 -3.15,-0.1 -3.92,-0.29 -0.77,-0.19 -1.4,-0.51 -1.92,-0.98 -0.5,-0.43 -0.87,-1.01 -1.1,-1.75 -0.24,-0.74 -0.36,-1.67 -0.36,-2.8l0 -0.98z"/>
  </g>
 </g>
</svg>
